<svg xmlns="http://www.w3.org/2000/svg" width="566" height="520" viewBox="0 0 566 520" fill="none">
<g clip-path="url(#clip0_1401_6907)">
<g clip-path="url(#clip1_1401_6907)">
<path d="M591.624 -50.5886H1.1048V539.93H591.624V-50.5886Z" stroke="#1D262D" stroke-width="0.30514" stroke-miterlimit="10"/>
<path d="M1.1051 511.806H591.624" stroke="#1D262D" stroke-width="0.30514" stroke-miterlimit="10"/>
<path d="M1.1051 483.691H591.624" stroke="#1D262D" stroke-width="0.30514" stroke-miterlimit="10"/>
<path d="M1.1051 455.567H591.624" stroke="#1D262D" stroke-width="0.30514" stroke-miterlimit="10"/>
<path d="M1.1051 427.443H591.624" stroke="#1D262D" stroke-width="0.30514" stroke-miterlimit="10"/>
<path d="M1.1051 399.328H591.624" stroke="#1D262D" stroke-width="0.30514" stroke-miterlimit="10"/>
<path d="M1.1051 371.203H591.624" stroke="#1D262D" stroke-width="0.30514" stroke-miterlimit="10"/>
<path d="M1.1051 343.088H591.624" stroke="#1D262D" stroke-width="0.30514" stroke-miterlimit="10"/>
<path d="M1.1051 314.964H591.624" stroke="#1D262D" stroke-width="0.30514" stroke-miterlimit="10"/>
<path d="M1.1051 286.849H591.624" stroke="#1D262D" stroke-width="0.30514" stroke-miterlimit="10"/>
<path d="M1.1051 258.724H591.624" stroke="#1D262D" stroke-width="0.30514" stroke-miterlimit="10"/>
<path d="M1.1051 230.61H591.624" stroke="#1D262D" stroke-width="0.30514" stroke-miterlimit="10"/>
<path d="M1.1051 202.485H591.624" stroke="#1D262D" stroke-width="0.30514" stroke-miterlimit="10"/>
<path d="M1.1051 174.37H591.624" stroke="#1D262D" stroke-width="0.30514" stroke-miterlimit="10"/>
<path d="M1.1051 146.245H591.624" stroke="#1D262D" stroke-width="0.30514" stroke-miterlimit="10"/>
<path d="M1.1051 118.13H591.624" stroke="#1D262D" stroke-width="0.30514" stroke-miterlimit="10"/>
<path d="M1.1051 90.0059H591.624" stroke="#1D262D" stroke-width="0.30514" stroke-miterlimit="10"/>
<path d="M1.1051 61.8906H591.624" stroke="#1D262D" stroke-width="0.30514" stroke-miterlimit="10"/>
<path d="M1.1051 33.7668H591.624" stroke="#1D262D" stroke-width="0.30514" stroke-miterlimit="10"/>
<path d="M1.1051 5.65112H591.624" stroke="#1D262D" stroke-width="0.30514" stroke-miterlimit="10"/>
<path d="M563.5 -50.5884V539.931" stroke="#1D262D" stroke-width="0.30514" stroke-miterlimit="10"/>
<path d="M535.385 -50.5884V539.931" stroke="#1D262D" stroke-width="0.30514" stroke-miterlimit="10"/>
<path d="M507.26 -50.5884V539.931" stroke="#1D262D" stroke-width="0.30514" stroke-miterlimit="10"/>
<path d="M479.136 -50.5884V539.931" stroke="#1D262D" stroke-width="0.30514" stroke-miterlimit="10"/>
<path d="M451.021 -50.5884V539.931" stroke="#1D262D" stroke-width="0.30514" stroke-miterlimit="10"/>
<path d="M422.896 -50.5884V539.931" stroke="#1D262D" stroke-width="0.30514" stroke-miterlimit="10"/>
<path d="M394.781 -50.5884V539.931" stroke="#1D262D" stroke-width="0.30514" stroke-miterlimit="10"/>
<path d="M366.657 -50.5884V539.931" stroke="#1D262D" stroke-width="0.30514" stroke-miterlimit="10"/>
<path d="M338.542 -50.5884V539.931" stroke="#1D262D" stroke-width="0.30514" stroke-miterlimit="10"/>
<path d="M310.417 -50.5884V539.931" stroke="#1D262D" stroke-width="0.30514" stroke-miterlimit="10"/>
<path d="M282.302 -50.5884V539.931" stroke="#1D262D" stroke-width="0.30514" stroke-miterlimit="10"/>
<path d="M254.178 -50.5884V539.931" stroke="#1D262D" stroke-width="0.30514" stroke-miterlimit="10"/>
<path d="M226.063 -50.5884V539.931" stroke="#1D262D" stroke-width="0.30514" stroke-miterlimit="10"/>
<path d="M197.939 -50.5884V539.931" stroke="#1D262D" stroke-width="0.30514" stroke-miterlimit="10"/>
<path d="M169.824 -50.5884V539.931" stroke="#1D262D" stroke-width="0.30514" stroke-miterlimit="10"/>
<path d="M141.699 -50.5884V539.931" stroke="#1D262D" stroke-width="0.30514" stroke-miterlimit="10"/>
<path d="M113.584 -50.5884V539.931" stroke="#1D262D" stroke-width="0.30514" stroke-miterlimit="10"/>
<path d="M85.4597 -50.5884V539.931" stroke="#1D262D" stroke-width="0.30514" stroke-miterlimit="10"/>
<path d="M57.3446 -50.5884V539.931" stroke="#1D262D" stroke-width="0.30514" stroke-miterlimit="10"/>
<path d="M29.2202 -50.5884V539.931" stroke="#1D262D" stroke-width="0.30514" stroke-miterlimit="10"/>
</g>
<rect x="-141.739" y="-127.56" width="880.494" height="822.306" fill="url(#paint0_diamond_1401_6907)"/>
<path opacity="0.5" d="M50.8441 264.962C50.8441 268.09 53.3804 270.627 56.509 270.627C59.6377 270.627 62.174 268.09 62.174 264.962C62.174 261.833 59.6377 259.297 56.509 259.297C53.3804 259.297 50.8441 261.833 50.8441 264.962ZM68.9371 339.033L69.5224 338.147L68.9371 339.033ZM284.689 231.157L283.842 230.516L283.842 230.516L284.689 231.157ZM491.358 184.984C491.94 185.058 492.472 184.647 492.546 184.065L493.755 174.582C493.829 174 493.417 173.468 492.835 173.394C492.253 173.32 491.721 173.731 491.647 174.313L490.573 182.742L482.144 181.668C481.562 181.594 481.03 182.006 480.956 182.587C480.882 183.169 481.293 183.701 481.875 183.775L491.358 184.984ZM55.5706 264.464C55.2455 265.077 54.9326 265.691 54.6316 266.305L56.5391 267.24C56.8301 266.646 57.1328 266.053 57.4474 265.459L55.5706 264.464ZM52.9432 270.049C52.4139 271.333 51.9349 272.615 51.5035 273.896L53.5167 274.574C53.9332 273.338 54.3958 272.099 54.9071 270.859L52.9432 270.049ZM50.32 277.842C49.9662 279.185 49.6627 280.523 49.4065 281.855L51.4926 282.256C51.7398 280.971 52.0328 279.679 52.3743 278.383L50.32 277.842ZM48.7664 285.914C48.5965 287.291 48.4752 288.658 48.3991 290.014L50.5201 290.133C50.5936 288.823 50.7108 287.503 50.8747 286.175L48.7664 285.914ZM48.3036 294.126C48.3166 295.509 48.3748 296.877 48.4744 298.229L50.593 298.073C50.4967 296.766 50.4404 295.442 50.4278 294.106L48.3036 294.126ZM48.9057 302.32C49.0937 303.691 49.3225 305.041 49.5879 306.367L51.671 305.95C51.4139 304.665 51.1923 303.358 51.0104 302.032L48.9057 302.32ZM50.5161 310.372C50.8694 311.713 51.2584 313.025 51.6783 314.304L53.6968 313.642C53.2898 312.402 52.9127 311.13 52.5703 309.831L50.5161 310.372ZM53.0758 318.172C53.5891 319.471 54.1321 320.73 54.699 321.944L56.6241 321.046C56.0751 319.87 55.5489 318.65 55.0514 317.392L53.0758 318.172ZM56.5491 325.607C57.2272 326.85 57.9274 328.035 58.6414 329.156L60.4332 328.015C59.7454 326.935 59.0696 325.792 58.4141 324.59L56.5491 325.607ZM60.9872 332.551C61.8609 333.713 62.7435 334.78 63.6215 335.741L65.1896 334.307C64.3611 333.401 63.5217 332.387 62.6855 331.274L60.9872 332.551ZM66.6514 338.654C67.2254 339.128 67.7935 339.551 68.3518 339.92L69.5224 338.147C69.0346 337.825 68.5271 337.447 68.0042 337.016L66.6514 338.654ZM68.3518 339.92C68.9646 340.324 69.5785 340.719 70.1935 341.105L71.3225 339.306C70.7215 338.929 70.1215 338.542 69.5224 338.147L68.3518 339.92ZM73.8968 343.309C75.1602 344.021 76.4279 344.695 77.6996 345.332L78.6505 343.432C77.4101 342.811 76.173 342.154 74.9397 341.459L73.8968 343.309ZM81.6015 347.163C82.9292 347.746 84.2608 348.289 85.5961 348.794L86.3474 346.807C85.0467 346.315 83.7491 345.786 82.455 345.218L81.6015 347.163ZM89.6638 350.211C91.0439 350.651 92.4274 351.051 93.8138 351.413L94.35 349.357C93.0001 349.005 91.6531 348.615 90.3092 348.187L89.6638 350.211ZM98.0072 352.388C99.4232 352.678 100.842 352.928 102.263 353.141L102.577 351.04C101.193 350.833 99.8117 350.589 98.4329 350.307L98.0072 352.388ZM106.539 353.666C107.972 353.805 109.407 353.905 110.844 353.97L110.939 351.848C109.539 351.785 108.14 351.686 106.743 351.552L106.539 353.666ZM115.153 354.056C116.588 354.049 118.024 354.006 119.461 353.93L119.349 351.809C117.945 351.883 116.544 351.924 115.143 351.931L115.153 354.056ZM123.755 353.603C125.181 353.461 126.606 353.287 128.032 353.082L127.729 350.98C126.334 351.18 124.939 351.351 123.545 351.489L123.755 353.603ZM132.273 352.38C133.68 352.117 135.087 351.824 136.493 351.503L136.02 349.432C134.641 349.747 133.261 350.034 131.882 350.292L132.273 352.38ZM140.655 350.469C142.038 350.098 143.42 349.7 144.8 349.276L144.176 347.245C142.82 347.662 141.463 348.052 140.105 348.417L140.655 350.469ZM148.869 347.952C150.221 347.487 151.572 346.998 152.921 346.487L152.167 344.5C150.839 345.005 149.509 345.486 148.178 345.943L148.869 347.952ZM156.896 344.909C158.215 344.363 159.533 343.796 160.848 343.208L159.98 341.268C158.683 341.848 157.384 342.408 156.083 342.947L156.896 344.909ZM164.727 341.41C166.014 340.794 167.298 340.158 168.579 339.504L167.614 337.612C166.348 338.258 165.079 338.886 163.809 339.495L164.727 341.41ZM172.363 337.516C173.618 336.838 174.87 336.143 176.118 335.432L175.067 333.586C173.832 334.289 172.594 334.976 171.353 335.647L172.363 337.516ZM179.808 333.278C181.032 332.546 182.253 331.799 183.469 331.039L182.343 329.237C181.138 329.991 179.93 330.73 178.718 331.454L179.808 333.278ZM187.069 328.74C188.264 327.961 189.454 327.169 190.641 326.365L189.449 324.606C188.273 325.404 187.093 326.189 185.909 326.96L187.069 328.74ZM194.154 323.939C195.321 323.119 196.483 322.287 197.641 321.444L196.391 319.727C195.242 320.563 194.089 321.388 192.932 322.201L194.154 323.939ZM201.073 318.906C202.212 318.049 203.347 317.183 204.477 316.307L203.175 314.628C202.053 315.497 200.927 316.357 199.796 317.207L201.073 318.906ZM207.833 313.666C208.947 312.777 210.055 311.88 211.158 310.975L209.811 309.333C208.715 310.232 207.614 311.123 206.508 312.006L207.833 313.666ZM214.444 308.243C215.533 307.325 216.617 306.4 217.695 305.468L216.306 303.861C215.234 304.787 214.157 305.706 213.075 306.618L214.444 308.243ZM220.912 302.654C221.978 301.709 223.039 300.759 224.094 299.803L222.667 298.229C221.619 299.179 220.564 300.124 219.504 301.063L220.912 302.654ZM227.245 296.915C228.29 295.947 229.33 294.973 230.362 293.996L228.901 292.453C227.874 293.425 226.841 294.394 225.801 295.357L227.245 296.915ZM233.45 291.042C234.475 290.05 235.494 289.055 236.505 288.057L235.014 286.545C234.007 287.538 232.993 288.528 231.973 289.514L233.45 291.042ZM239.531 285.043C240.538 284.031 241.538 283.016 242.529 281.999L241.009 280.516C240.022 281.527 239.027 282.538 238.025 283.546L239.531 285.043ZM245.496 278.931C246.485 277.898 247.466 276.864 248.439 275.831L246.892 274.375C245.923 275.404 244.947 276.433 243.962 277.461L245.496 278.931ZM251.348 272.712C252.32 271.66 253.284 270.609 254.238 269.559L252.666 268.131C251.715 269.176 250.756 270.222 249.788 271.27L251.348 272.712ZM257.092 266.393C258.048 265.323 258.993 264.256 259.929 263.192L258.333 261.79C257.402 262.849 256.46 263.912 255.508 264.977L257.092 266.393ZM262.731 259.979C263.671 258.893 264.598 257.812 265.515 256.735L263.898 255.358C262.985 256.431 262.06 257.508 261.125 258.589L262.731 259.979ZM268.27 253.474C269.191 252.375 270.1 251.281 270.997 250.195L269.358 248.843C268.465 249.925 267.559 251.014 266.641 252.11L268.27 253.474ZM273.707 246.883C274.61 245.772 275.498 244.669 276.372 243.577L274.713 242.25C273.843 243.338 272.957 244.437 272.058 245.544L273.707 246.883ZM279.043 240.211C279.929 239.085 280.799 237.971 281.652 236.871L279.973 235.569C279.123 236.666 278.257 237.775 277.374 238.897L279.043 240.211ZM284.27 233.465C284.697 232.906 285.119 232.35 285.536 231.798L283.842 230.516C283.426 231.066 283.006 231.62 282.58 232.177L284.27 233.465ZM285.536 231.798C285.958 231.241 286.381 230.686 286.807 230.134L285.124 228.837C284.695 229.394 284.267 229.954 283.842 230.516L285.536 231.798ZM289.382 226.856C290.251 225.771 291.127 224.697 292.01 223.634L290.376 222.276C289.484 223.349 288.6 224.433 287.723 225.529L289.382 226.856ZM294.707 220.448C295.613 219.397 296.527 218.358 297.447 217.33L295.864 215.913C294.935 216.951 294.013 218 293.098 219.061L294.707 220.448ZM300.264 214.242C301.209 213.224 302.161 212.219 303.12 211.225L301.591 209.75C300.623 210.753 299.662 211.769 298.708 212.796L300.264 214.242ZM306.047 208.248C307.031 207.266 308.021 206.296 309.018 205.338L307.545 203.807C306.54 204.773 305.54 205.753 304.546 206.745L306.047 208.248ZM312.051 202.478C313.073 201.532 314.101 200.6 315.134 199.681L313.721 198.094C312.678 199.022 311.64 199.964 310.609 200.918L312.051 202.478ZM318.272 196.942C319.33 196.036 320.394 195.144 321.462 194.265L320.113 192.624C319.034 193.512 317.959 194.413 316.89 195.328L318.272 196.942ZM324.702 191.653C325.796 190.789 326.895 189.939 327.998 189.103L326.715 187.41C325.6 188.254 324.491 189.113 323.386 189.986L324.702 191.653ZM331.338 186.624C332.466 185.804 333.598 184.999 334.735 184.208L333.521 182.464C332.373 183.263 331.229 184.077 330.089 184.905L331.338 186.624ZM338.171 181.869C339.332 181.096 340.497 180.338 341.666 179.595L340.526 177.802C339.345 178.553 338.168 179.319 336.994 180.1L338.171 181.869ZM345.196 177.403C346.389 176.68 347.585 175.972 348.784 175.281L347.723 173.441C346.511 174.14 345.301 174.855 344.095 175.587L345.196 177.403ZM352.406 173.244C353.629 172.573 354.855 171.919 356.083 171.282L355.104 169.397C353.862 170.041 352.622 170.703 351.385 171.381L352.406 173.244ZM359.793 169.409C361.044 168.795 362.298 168.198 363.553 167.619L362.662 165.69C361.392 166.277 360.124 166.881 358.857 167.502L359.793 169.409ZM367.347 165.92C368.625 165.367 369.905 164.831 371.184 164.313L370.387 162.344C369.092 162.868 367.797 163.41 366.503 163.971L367.347 165.92ZM375.059 162.801C376.362 162.311 377.664 161.841 378.966 161.389L378.269 159.382C376.95 159.84 375.631 160.316 374.312 160.812L375.059 162.801ZM382.916 160.076C384.24 159.656 385.563 159.255 386.884 158.875L386.295 156.833C384.956 157.219 383.615 157.626 382.273 158.052L382.916 160.076ZM390.904 157.776C392.247 157.43 393.588 157.104 394.927 156.799L394.455 154.728C393.097 155.037 391.736 155.368 390.373 155.72L390.904 157.776ZM399.003 155.934C400.367 155.666 401.727 155.42 403.083 155.196L402.737 153.1C401.359 153.327 399.978 153.577 398.593 153.849L399.003 155.934ZM407.191 154.585C408.571 154.402 409.947 154.242 411.316 154.107L411.107 151.993C409.714 152.131 408.315 152.293 406.912 152.479L407.191 154.585ZM415.44 153.768C416.832 153.678 418.217 153.613 419.595 153.572L419.533 151.449C418.129 151.49 416.719 151.556 415.303 151.648L415.44 153.768ZM423.733 153.527C425.123 153.538 426.505 153.575 427.879 153.638L427.976 151.516C426.575 151.451 425.166 151.414 423.749 151.403L423.733 153.527ZM432.015 153.91C433.393 154.028 434.762 154.174 436.12 154.347L436.389 152.24C435.001 152.063 433.604 151.914 432.196 151.793L432.015 153.91ZM440.225 154.96C441.59 155.194 442.943 155.457 444.284 155.75L444.736 153.674C443.364 153.375 441.98 153.106 440.584 152.866L440.225 154.96ZM448.299 156.721C449.637 157.078 450.962 157.465 452.272 157.882L452.917 155.858C451.574 155.43 450.217 155.034 448.847 154.668L448.299 156.721ZM456.175 159.23C457.468 159.713 458.745 160.227 460.007 160.772L460.849 158.822C459.555 158.263 458.244 157.736 456.918 157.24L456.175 159.23ZM463.754 162.508C464.988 163.119 466.204 163.761 467.403 164.436L468.445 162.584C467.213 161.891 465.964 161.231 464.697 160.604L463.754 162.508ZM470.946 166.555C472.104 167.291 473.245 168.059 474.366 168.859L475.6 167.13C474.448 166.308 473.276 165.518 472.085 164.762L470.946 166.555ZM477.66 171.348C478.731 172.204 479.782 173.091 480.812 174.01L482.226 172.424C481.167 171.48 480.087 170.568 478.986 169.689L477.66 171.348ZM483.814 176.834C484.787 177.801 485.74 178.798 486.672 179.827L488.247 178.401C487.29 177.344 486.311 176.32 485.31 175.327L483.814 176.834ZM489.357 182.95C489.794 183.486 490.226 184.029 490.652 184.58L492.332 183.28C491.895 182.715 491.452 182.157 491.003 181.607L489.357 182.95Z" fill="black"/>
<path d="M282.804 246.182L169.684 365.102L169.684 127.262L282.804 246.182Z" fill="url(#paint1_linear_1401_6907)"/>
<path d="M340.17 246.182L227.051 365.102L227.051 127.262L340.17 246.182Z" fill="url(#paint2_linear_1401_6907)"/>
<path d="M397.536 246.182L284.417 365.102L284.417 127.262L397.536 246.182Z" fill="url(#paint3_linear_1401_6907)"/>
<ellipse cx="509.389" cy="251.081" rx="56.175" ry="56.7992" fill="url(#paint4_linear_1401_6907)"/>
<path d="M111.31 249.821C111.31 245.036 110.378 240.297 108.566 235.876C106.755 231.455 104.101 227.439 100.754 224.055C97.408 220.671 93.4351 217.987 89.0628 216.156C84.6905 214.325 80.0042 213.382 75.2716 213.382L75.2716 249.821H111.31Z" fill="#ACB5BD"/>
<path d="M75.2716 289.903C80.0042 289.903 84.6905 288.96 89.0628 287.129C93.4351 285.298 97.408 282.614 100.754 279.23C104.101 275.846 106.755 271.829 108.566 267.409C110.378 262.988 111.31 258.249 111.31 253.464L75.2716 253.464L75.2716 289.903Z" fill="#ACB5BD"/>
<path d="M71.6678 213.382C66.9352 213.382 62.249 214.325 57.8766 216.156C53.5043 217.987 49.5315 220.671 46.1851 224.055C42.8386 227.438 40.1841 231.455 38.373 235.876C36.5619 240.297 35.6298 245.035 35.6298 249.821L71.6678 249.821L71.6678 213.382Z" fill="#ACB5BD"/>
</g>
<defs>
<radialGradient id="paint0_diamond_1401_6907" cx="0" cy="0" r="1" gradientUnits="userSpaceOnUse" gradientTransform="translate(298.508 283.593) rotate(42.8894) scale(339.208 329.671)">
<stop stop-color="#EFEADF" stop-opacity="0"/>
<stop offset="1" stop-color="#EFEADF"/>
</radialGradient>
<linearGradient id="paint1_linear_1401_6907" x1="258.179" y1="246.182" x2="170.454" y2="246.182" gradientUnits="userSpaceOnUse">
<stop stop-color="#3D65F9"/>
<stop offset="1" stop-color="#486FFF"/>
</linearGradient>
<linearGradient id="paint2_linear_1401_6907" x1="315.545" y1="246.182" x2="227.82" y2="246.182" gradientUnits="userSpaceOnUse">
<stop stop-color="#3D65F9"/>
<stop offset="1" stop-color="#486FFF"/>
</linearGradient>
<linearGradient id="paint3_linear_1401_6907" x1="372.912" y1="246.182" x2="285.186" y2="246.182" gradientUnits="userSpaceOnUse">
<stop stop-color="#3D65F9"/>
<stop offset="1" stop-color="#486FFF"/>
</linearGradient>
<linearGradient id="paint4_linear_1401_6907" x1="488.746" y1="248.172" x2="620.984" y2="258.31" gradientUnits="userSpaceOnUse">
<stop stop-color="#486FFF"/>
<stop offset="1" stop-color="#8BF7EF"/>
</linearGradient>
<clipPath id="clip0_1401_6907">
<rect width="566" height="520" fill="white"/>
</clipPath>
<clipPath id="clip1_1401_6907">
<rect width="590.752" height="590.752" fill="white" transform="translate(0.984131 -50.7087)"/>
</clipPath>
</defs>
<script xmlns="" type="text/javascript" src="chrome-extension://hejbmebodbijjdhflfknehhcgaklhano/../window/testing-library.js"/></svg>